<?xml version="1.0" standalone="no"?>
<!DOCTYPE svg PUBLIC "-//W3C//DTD SVG 20010904//EN"
 "http://www.w3.org/TR/2001/REC-SVG-20010904/DTD/svg10.dtd">
<svg version="1.0" xmlns="http://www.w3.org/2000/svg"
 width="256.000000pt" height="256.000000pt" viewBox="0 0 256.000000 256.000000"
 preserveAspectRatio="xMidYMid meet">
<metadata>
Created by potrace 1.14, written by Peter Selinger 2001-2017
</metadata>
<g transform="translate(0.000000,256.000000) scale(0.100000,-0.100000)"
fill="#000000" stroke="none">
<path d="M377 2419 c11 -13 9 -16 -17 -16 -18 0 -27 4 -23 11 3 6 0 5 -8 -1
-16 -15 -33 -17 -24 -3 3 6 1 10 -4 10 -6 0 -11 -3 -11 -8 0 -4 -16 -7 -35 -8
-20 0 -32 3 -28 9 4 6 1 7 -8 2 -21 -14 -60 -15 -53 -3 5 7 2 8 -7 3 -21 -14
-60 -15 -53 -3 4 6 2 8 -4 4 -19 -11 -40 -63 -31 -77 4 -8 3 -20 -4 -28 -9
-12 -9 -13 1 -7 6 4 12 2 12 -3 0 -6 -4 -11 -10 -11 -5 0 -10 -5 -10 -11 0 -5
5 -7 10 -4 6 3 10 1 10 -4 0 -6 -6 -11 -12 -11 -8 0 -9 -3 -3 -8 13 -9 15
-103 2 -95 -6 3 -7 1 -3 -5 13 -22 15 -54 5 -74 -8 -15 -8 -19 0 -14 6 4 11 2
11 -3 0 -6 -4 -11 -10 -11 -5 0 -10 -5 -10 -11 0 -5 4 -7 10 -4 5 3 10 1 10
-4 0 -6 -6 -11 -12 -11 -8 0 -9 -3 -3 -8 13 -9 15 -103 2 -95 -6 3 -7 1 -3 -5
13 -22 15 -54 5 -74 -8 -15 -8 -19 0 -14 6 4 11 2 11 -3 0 -6 -4 -11 -10 -11
-5 0 -10 -5 -10 -11 0 -5 5 -7 10 -4 6 3 10 1 10 -4 0 -6 -6 -11 -12 -11 -9 0
-9 -3 -2 -8 7 -5 10 -234 10 -725 -1 -799 -7 -735 69 -732 22 1 48 -2 59 -8
10 -5 16 -5 13 0 -3 5 63 9 154 9 87 -1 159 -4 159 -7 0 -4 7 -10 16 -13 14
-5 15 -4 5 8 -9 11 -6 14 15 14 18 0 22 -3 13 -9 -10 -6 -10 -9 -2 -9 6 0 15
5 18 10 3 6 11 10 16 10 6 0 7 -5 4 -10 -3 -6 -1 -10 4 -10 6 0 11 3 11 8 0 4
65 7 144 7 79 0 142 -3 140 -6 -2 -4 3 -9 11 -12 8 -4 12 -1 9 6 -5 15 149 18
163 3 4 -5 1 -7 -7 -4 -18 6 -26 -27 -9 -37 5 -4 5 -14 -2 -26 -8 -15 -7 -24
3 -37 11 -13 11 -15 -2 -7 -9 5 -7 -1 5 -14 24 -27 70 -53 79 -44 3 4 6 0 6
-7 0 -7 3 -10 6 -7 4 3 16 1 28 -5 11 -7 28 -13 36 -13 8 0 20 -3 26 -7 6 -4
27 -8 47 -10 21 -1 37 -6 37 -11 0 -5 8 -3 17 4 11 9 14 10 9 2 -5 -9 0 -13
16 -13 65 0 98 -5 98 -15 0 -5 5 -3 10 5 5 8 10 10 10 5 0 -6 32 -12 73 -13
39 -2 83 -4 97 -5 14 -2 28 1 31 6 4 5 12 6 19 2 17 -11 90 -13 96 -3 3 5 10
5 16 2 16 -10 78 -10 78 0 0 5 6 3 13 -3 8 -6 17 -8 21 -4 3 4 25 6 49 6 23 0
50 4 61 9 13 7 16 7 12 -1 -8 -12 6 -15 18 -4 4 4 26 8 49 9 23 1 56 5 72 8
17 4 44 9 60 11 33 5 69 12 73 15 1 2 5 3 10 4 4 1 13 5 20 9 6 5 12 5 12 1 0
-3 12 1 26 11 15 9 23 12 20 6 -5 -7 -1 -9 8 -5 9 3 16 10 16 15 0 5 7 9 15 9
19 0 55 39 55 61 0 23 -64 218 -83 255 -27 50 -67 85 -136 118 -36 17 -66 37
-66 44 0 18 27 32 50 26 18 -4 18 -4 2 6 -9 6 -15 16 -11 22 4 6 10 5 15 -3 6
-10 9 -8 9 9 0 12 3 22 8 22 4 0 7 269 7 598 -1 360 2 602 8 610 5 7 6 12 0
12 -5 0 -8 101 -8 229 0 126 3 227 7 225 4 -3 5 1 3 8 -3 7 -15 20 -28 27 -19
13 -21 12 -10 -1 11 -12 8 -15 -17 -15 -18 0 -27 4 -23 11 3 6 0 5 -8 -1 -16
-15 -33 -17 -24 -3 3 6 1 10 -4 10 -6 0 -11 -3 -11 -8 0 -4 -16 -7 -35 -8 -20
0 -32 3 -28 9 4 6 1 7 -8 2 -21 -14 -60 -15 -53 -3 5 7 2 8 -7 3 -21 -14 -60
-15 -53 -3 5 7 2 8 -7 3 -22 -14 -60 -15 -52 -2 5 9 3 9 -8 0 -12 -10 -21 -9
-43 2 -22 12 -26 12 -17 2 8 -11 5 -14 -19 -14 -17 0 -27 5 -23 10 3 6 1 7 -6
3 -6 -4 -20 -2 -29 6 -15 11 -15 11 -5 -3 11 -13 9 -16 -17 -16 -18 0 -27 4
-23 11 3 6 0 5 -8 -1 -16 -15 -33 -17 -24 -3 3 6 1 10 -4 10 -6 0 -11 -3 -11
-8 0 -4 -16 -7 -35 -8 -20 0 -32 3 -28 9 4 6 1 7 -8 2 -21 -14 -60 -15 -53 -3
5 7 2 8 -7 3 -21 -14 -60 -15 -53 -3 5 7 2 8 -7 3 -22 -14 -60 -15 -52 -2 5 9
3 9 -8 0 -12 -10 -21 -9 -43 2 -22 12 -26 12 -17 2 8 -11 5 -14 -19 -14 -17 0
-27 5 -23 10 3 6 1 7 -6 3 -6 -4 -20 -2 -29 6 -15 11 -15 11 -5 -3 11 -13 9
-16 -17 -16 -18 0 -27 4 -23 11 3 6 0 5 -8 -1 -16 -15 -33 -17 -24 -3 3 6 1
10 -4 10 -6 0 -11 -3 -11 -8 0 -4 -16 -7 -35 -8 -20 0 -32 3 -28 9 4 6 1 7 -8
2 -21 -14 -60 -15 -53 -3 5 7 2 8 -7 3 -21 -14 -60 -15 -53 -3 5 7 2 8 -7 3
-22 -14 -60 -15 -52 -2 5 9 3 9 -8 0 -12 -10 -21 -9 -43 2 -22 12 -26 12 -17
2 8 -11 5 -14 -19 -14 -17 0 -27 5 -23 10 3 6 1 7 -6 3 -6 -4 -20 -2 -29 6
-15 11 -15 11 -5 -3 11 -13 9 -16 -17 -16 -18 0 -27 4 -23 11 3 6 0 5 -8 -1
-16 -15 -33 -17 -24 -3 3 6 1 10 -4 10 -6 0 -11 -3 -11 -8 0 -4 -16 -7 -35 -8
-20 0 -32 3 -28 9 4 6 1 7 -8 2 -21 -14 -60 -15 -53 -3 5 7 2 8 -7 3 -21 -14
-60 -15 -53 -3 5 7 2 8 -7 3 -22 -14 -60 -15 -52 -2 5 9 3 9 -8 0 -12 -10 -21
-9 -43 2 -22 12 -26 12 -17 2 8 -11 5 -14 -19 -14 -17 0 -27 5 -23 10 3 6 1 7
-6 3 -6 -4 -20 -2 -29 6 -15 11 -15 11 -5 -3z m723 -2133 c0 -3 -4 -8 -10 -11
-5 -3 -10 -1 -10 4 0 6 5 11 10 11 6 0 10 -2 10 -4z"/>
<path d="M2339 2368 c-6 -20 -6 -39 0 -42 4 -3 7 6 7 20 0 20 -4 32 -7 22z"/>
<path d="M2333 2293 c0 -9 4 -10 14 -2 7 6 13 12 13 14 0 1 -6 2 -13 2 -8 0
-14 -6 -14 -14z"/>
<path d="M2330 2266 c0 -2 7 -7 16 -10 8 -3 12 -2 9 4 -6 10 -25 14 -25 6z"/>
<path d="M2330 2226 c0 -2 7 -7 16 -10 8 -3 12 -2 9 4 -6 10 -25 14 -25 6z"/>
<path d="M2339 2168 c-5 -14 -4 -56 2 -53 4 3 6 13 5 23 -2 9 2 20 8 24 8 5 7
8 -1 8 -7 0 -13 -1 -14 -2z"/>
<path d="M2345 2100 c-3 -6 1 -7 9 -4 18 7 21 14 7 14 -6 0 -13 -4 -16 -10z"/>
<path d="M2355 2029 c-4 -6 -5 -12 -2 -15 2 -3 7 2 10 11 7 17 1 20 -8 4z"/>
<path d="M2330 1986 c0 -2 7 -7 16 -10 8 -3 12 -2 9 4 -6 10 -25 14 -25 6z"/>
<path d="M2330 1946 c0 -2 7 -7 16 -10 8 -3 12 -2 9 4 -6 10 -25 14 -25 6z"/>
<path d="M2350 1890 c-8 -5 -12 -12 -9 -15 4 -3 12 1 19 10 14 17 11 19 -10 5z"/>
<path d="M2334 1825 c0 -19 3 -32 7 -29 4 2 6 12 5 22 -2 9 1 20 6 23 5 3 4 9
-4 11 -10 4 -14 -3 -14 -27z"/>
<path d="M2349 1783 c-13 -16 -12 -17 4 -4 9 7 17 15 17 17 0 8 -8 3 -21 -13z"/>
<path d="M47 1759 c7 -7 15 -10 18 -7 3 3 -2 9 -12 12 -14 6 -15 5 -6 -5z"/>
<path d="M2342 1726 c7 -8 15 -12 17 -11 5 6 -10 25 -20 25 -5 0 -4 -6 3 -14z"/>
<path d="M53 1715 c0 -8 4 -12 9 -9 4 3 8 9 8 15 0 5 -4 9 -8 9 -5 0 -9 -7 -9
-15z"/>
<path d="M2337 1689 c4 -13 8 -18 11 -10 2 7 -1 18 -6 23 -8 8 -9 4 -5 -13z"/>
<path d="M46 1642 c-3 -5 1 -9 9 -9 8 0 12 4 9 9 -3 4 -7 8 -9 8 -2 0 -6 -4
-9 -8z"/>
<path d="M56 1593 c-6 -14 -5 -15 5 -6 7 7 10 15 7 18 -3 3 -9 -2 -12 -12z"/>
<path d="M2337 1565 c3 -8 9 -12 14 -9 12 7 11 11 -5 17 -10 4 -13 1 -9 -8z"/>
<path d="M44 1559 c-3 -6 -2 -15 3 -20 5 -5 9 -1 9 11 0 23 -2 24 -12 9z"/>
<path d="M2330 1536 c0 -2 7 -7 16 -10 8 -3 12 -2 9 4 -6 10 -25 14 -25 6z"/>
<path d="M2333 1505 c0 -8 4 -12 9 -9 5 3 6 10 3 15 -9 13 -12 11 -12 -6z"/>
<path d="M54 1480 c0 -13 4 -16 10 -10 7 7 7 13 0 20 -6 6 -10 3 -10 -10z"/>
<path d="M2343 1465 c-6 -14 -7 -23 -2 -19 13 8 31 44 22 44 -4 0 -13 -11 -20
-25z"/>
<path d="M45 1440 c-3 -5 -1 -10 4 -10 6 0 11 5 11 10 0 6 -2 10 -4 10 -3 0
-8 -4 -11 -10z"/>
<path d="M46 1398 c3 -5 10 -6 15 -3 13 9 11 12 -6 12 -8 0 -12 -4 -9 -9z"/>
<path d="M2339 1393 c0 -5 -2 -15 -4 -24 -1 -9 4 -16 11 -16 9 0 11 4 5 10 -5
5 -7 16 -4 23 3 8 2 14 -1 14 -3 0 -6 -3 -7 -7z"/>
<path d="M60 1371 c0 -7 -5 -9 -12 -5 -7 5 -8 3 -3 -5 5 -9 10 -10 18 -2 6 6
8 14 4 18 -4 3 -7 1 -7 -6z"/>
<path d="M54 1320 c0 -13 4 -16 10 -10 7 7 7 13 0 20 -6 6 -10 3 -10 -10z"/>
<path d="M2335 1329 c-4 -6 -5 -12 -2 -15 2 -3 7 2 10 11 7 17 1 20 -8 4z"/>
<path d="M50 1280 c0 -5 5 -10 10 -10 6 0 10 5 10 10 0 6 -4 10 -10 10 -5 0
-10 -4 -10 -10z"/>
<path d="M2342 1258 c-7 -7 -12 -17 -12 -22 0 -6 5 -3 11 7 6 9 15 14 21 11 7
-4 8 -2 4 4 -9 15 -9 15 -24 0z"/>
<path d="M54 1240 c0 -13 4 -16 10 -10 7 7 7 13 0 20 -6 6 -10 3 -10 -10z"/>
<path d="M2340 1215 c-11 -13 -11 -18 0 -28 10 -9 11 -9 6 1 -4 7 -2 19 4 27
7 8 10 15 7 15 -2 0 -10 -7 -17 -15z"/>
<path d="M45 1200 c-3 -5 -1 -10 4 -10 6 0 11 5 11 10 0 6 -2 10 -4 10 -3 0
-8 -4 -11 -10z"/>
<path d="M46 1158 c3 -5 10 -6 15 -3 13 9 11 12 -6 12 -8 0 -12 -4 -9 -9z"/>
<path d="M2330 1158 c0 -4 4 -8 9 -8 6 0 12 4 15 8 3 5 -1 9 -9 9 -8 0 -15 -4
-15 -9z"/>
<path d="M60 1131 c0 -7 -5 -9 -12 -5 -7 5 -8 3 -3 -5 5 -9 10 -10 18 -2 6 6
8 14 4 18 -4 3 -7 1 -7 -6z"/>
<path d="M2353 1125 c0 -8 4 -12 9 -9 5 3 6 10 3 15 -9 13 -12 11 -12 -6z"/>
<path d="M54 1080 c0 -13 4 -16 10 -10 7 7 7 13 0 20 -6 6 -10 3 -10 -10z"/>
<path d="M50 1040 c0 -5 5 -10 10 -10 6 0 10 5 10 10 0 6 -4 10 -10 10 -5 0
-10 -4 -10 -10z"/>
<path d="M54 1000 c0 -13 4 -16 10 -10 7 7 7 13 0 20 -6 6 -10 3 -10 -10z"/>
<path d="M2335 1009 c-4 -6 -5 -12 -2 -15 2 -3 7 2 10 11 7 17 1 20 -8 4z"/>
<path d="M45 960 c-3 -5 -1 -10 4 -10 6 0 11 5 11 10 0 6 -2 10 -4 10 -3 0 -8
-4 -11 -10z"/>
<path d="M2342 938 c-7 -7 -12 -17 -12 -22 0 -6 5 -3 11 7 6 9 15 14 21 11 7
-4 8 -2 4 4 -9 15 -9 15 -24 0z"/>
<path d="M46 918 c3 -5 10 -6 15 -3 13 9 11 12 -6 12 -8 0 -12 -4 -9 -9z"/>
<path d="M2340 895 c-11 -13 -11 -18 0 -28 10 -9 11 -9 6 1 -4 7 -2 19 4 27 7
8 10 15 7 15 -2 0 -10 -7 -17 -15z"/>
<path d="M60 891 c0 -7 -5 -9 -12 -5 -7 5 -8 3 -3 -5 5 -9 10 -10 18 -2 6 6 8
14 4 18 -4 3 -7 1 -7 -6z"/>
<path d="M54 840 c0 -13 4 -16 10 -10 7 7 7 13 0 20 -6 6 -10 3 -10 -10z"/>
<path d="M2330 838 c0 -4 4 -8 9 -8 6 0 12 4 15 8 3 5 -1 9 -9 9 -8 0 -15 -4
-15 -9z"/>
<path d="M2356 807 c3 -10 9 -15 12 -12 3 3 0 11 -7 18 -10 9 -11 8 -5 -6z"/>
<path d="M50 800 c0 -5 5 -10 10 -10 6 0 10 5 10 10 0 6 -4 10 -10 10 -5 0
-10 -4 -10 -10z"/>
<path d="M54 760 c0 -13 4 -16 10 -10 7 7 7 13 0 20 -6 6 -10 3 -10 -10z"/>
<path d="M2337 774 c7 -3 9 -13 6 -22 -4 -14 -3 -14 5 -2 12 16 7 30 -11 29
-9 0 -9 -2 0 -5z"/>
<path d="M45 720 c-3 -5 -1 -10 4 -10 6 0 11 5 11 10 0 6 -2 10 -4 10 -3 0 -8
-4 -11 -10z"/>
<path d="M46 678 c3 -5 10 -6 15 -3 13 9 11 12 -6 12 -8 0 -12 -4 -9 -9z"/>
<path d="M60 651 c0 -7 -5 -9 -12 -5 -7 5 -8 3 -3 -5 5 -9 10 -10 18 -2 6 6 8
14 4 18 -4 3 -7 1 -7 -6z"/>
<path d="M54 600 c0 -13 4 -16 10 -10 7 7 7 13 0 20 -6 6 -10 3 -10 -10z"/>
<path d="M50 560 c0 -5 5 -10 10 -10 6 0 10 5 10 10 0 6 -4 10 -10 10 -5 0
-10 -4 -10 -10z"/>
<path d="M54 520 c0 -13 4 -16 10 -10 7 7 7 13 0 20 -6 6 -10 3 -10 -10z"/>
<path d="M45 480 c-3 -5 -1 -10 4 -10 6 0 11 5 11 10 0 6 -2 10 -4 10 -3 0 -8
-4 -11 -10z"/>
<path d="M46 438 c3 -5 10 -6 15 -3 13 9 11 12 -6 12 -8 0 -12 -4 -9 -9z"/>
<path d="M60 411 c0 -7 -5 -9 -12 -5 -7 5 -8 3 -3 -5 5 -9 10 -10 18 -2 6 6 8
14 4 18 -4 3 -7 1 -7 -6z"/>
<path d="M54 360 c0 -13 4 -16 10 -10 7 7 7 13 0 20 -6 6 -10 3 -10 -10z"/>
<path d="M50 319 c0 -5 4 -8 9 -4 5 3 12 1 16 -5 3 -5 11 -10 18 -10 6 0 2 7
-9 15 -23 17 -34 19 -34 4z"/>
<path d="M115 299 c-4 -6 -5 -12 -2 -15 2 -3 7 2 10 11 7 17 1 20 -8 4z"/>
<path d="M170 300 c0 -5 5 -10 11 -10 5 0 7 5 4 10 -3 6 -8 10 -11 10 -2 0 -4
-4 -4 -10z"/>
<path d="M237 303 c-10 -10 -8 -23 4 -23 5 0 8 4 5 9 -4 5 0 12 6 14 7 3 8 6
2 6 -6 1 -14 -2 -17 -6z"/>
<path d="M275 299 c-4 -6 -5 -12 -2 -15 2 -3 7 2 10 11 7 17 1 20 -8 4z"/>
<path d="M390 298 c0 -6 3 -8 7 -5 3 4 12 2 20 -5 10 -8 17 -8 26 1 9 10 8 11
-4 6 -10 -4 -20 -2 -24 4 -8 15 -25 14 -25 -1z"/>
<path d="M510 305 c0 -5 5 -17 10 -25 5 -8 10 -10 10 -5 0 6 -5 17 -10 25 -5
8 -10 11 -10 5z"/>
<path d="M652 295 c15 -16 20 -17 30 -6 11 11 10 13 0 7 -7 -4 -21 -2 -30 5
-15 12 -15 11 0 -6z"/>
<path d="M1015 300 c-3 -5 -1 -10 4 -10 6 0 11 5 11 10 0 6 -2 10 -4 10 -3 0
-8 -4 -11 -10z"/>
<path d="M735 289 c-4 -6 -5 -12 -2 -15 2 -3 7 2 10 11 7 17 1 20 -8 4z"/>
<path d="M855 289 c-4 -6 -5 -12 -2 -15 2 -3 7 2 10 11 7 17 1 20 -8 4z"/>
<path d="M897 289 c7 -7 15 -10 18 -7 3 3 -2 9 -12 12 -14 6 -15 5 -6 -5z"/>
</g>
</svg>
